<?xml version="1.0" encoding="UTF-8" standalone="no"?>
<!DOCTYPE svg PUBLIC "-//W3C//DTD SVG 1.1//EN"
 "http://www.w3.org/Graphics/SVG/1.1/DTD/svg11.dtd">
<!-- Generated by graphviz version 2.26.3 (20100126.1600)
 -->
<!-- Title: controllers_diagram Pages: 1 -->
<svg width="655pt" height="634pt"
 viewBox="0.00 0.00 655.00 634.00" xmlns="http://www.w3.org/2000/svg" xmlns:xlink="http://www.w3.org/1999/xlink">
<g id="graph1" class="graph" transform="scale(1 1) rotate(0) translate(4 630)">
<title>controllers_diagram</title>
<polygon fill="white" stroke="white" points="-4,5 -4,-630 652,-630 652,5 -4,5"/>
<!-- _diagram_info -->
<g id="node1" class="node"><title>_diagram_info</title>
<text text-anchor="start" x="389" y="-63.3" font-family="Times,serif" font-size="13.00">Controllers diagram</text>
<text text-anchor="start" x="389" y="-49.3" font-family="Times,serif" font-size="13.00">Date: May 10 2011 &#45; 16:28</text>
<text text-anchor="start" x="389" y="-35.3" font-family="Times,serif" font-size="13.00">Migration version: 20110508121823</text>
<text text-anchor="start" x="389" y="-21.3" font-family="Times,serif" font-size="13.00">Generated by RailRoady 1.0.2</text>
<text text-anchor="start" x="389" y="-7.3" font-family="Times,serif" font-size="13.00">http://railroady.prestonlee.com</text>
</g>
<!-- ApplicationController -->
<g id="node2" class="node"><title>ApplicationController</title>
<polyline fill="none" stroke="black" points="153,-441.5 338,-441.5 "/>
<path fill="none" stroke="black" d="M338,-441.5C344,-441.5 350,-447.5 350,-453.5"/>
<polyline fill="none" stroke="black" points="350,-453.5 350,-537.5 "/>
<path fill="none" stroke="black" d="M350,-537.5C350,-543.5 344,-549.5 338,-549.5"/>
<polyline fill="none" stroke="black" points="338,-549.5 153,-549.5 "/>
<path fill="none" stroke="black" d="M153,-549.5C147,-549.5 141,-543.5 141,-537.5"/>
<polyline fill="none" stroke="black" points="141,-537.5 141,-453.5 "/>
<path fill="none" stroke="black" d="M141,-453.5C141,-447.5 147,-441.5 153,-441.5"/>
<text text-anchor="middle" x="245.5" y="-532.9" font-family="Times,serif" font-size="14.00">ApplicationController</text>
<polyline fill="none" stroke="black" points="141,-526.5 350,-526.5 "/>
<text text-anchor="start" x="149" y="-509.9" font-family="Times,serif" font-size="14.00">_one_time_conditions_valid_12?</text>
<polyline fill="none" stroke="black" points="141,-503.5 350,-503.5 "/>
<polyline fill="none" stroke="black" points="141,-479.5 350,-479.5 "/>
<text text-anchor="start" x="149" y="-462.9" font-family="Times,serif" font-size="14.00">_layout</text>
<text text-anchor="start" x="149" y="-447.9" font-family="Times,serif" font-size="14.00">_run_process_action_callbacks</text>
</g>
<!-- MicropostsController -->
<g id="node3" class="node"><title>MicropostsController</title>
<polyline fill="none" stroke="black" points="393,-121.5 578,-121.5 "/>
<path fill="none" stroke="black" d="M578,-121.5C584,-121.5 590,-127.5 590,-133.5"/>
<polyline fill="none" stroke="black" points="590,-133.5 590,-277.5 "/>
<path fill="none" stroke="black" d="M590,-277.5C590,-283.5 584,-289.5 578,-289.5"/>
<polyline fill="none" stroke="black" points="578,-289.5 393,-289.5 "/>
<path fill="none" stroke="black" d="M393,-289.5C387,-289.5 381,-283.5 381,-277.5"/>
<polyline fill="none" stroke="black" points="381,-277.5 381,-133.5 "/>
<path fill="none" stroke="black" d="M381,-133.5C381,-127.5 387,-121.5 393,-121.5"/>
<text text-anchor="middle" x="485.5" y="-272.9" font-family="Times,serif" font-size="14.00">MicropostsController</text>
<polyline fill="none" stroke="black" points="381,-266.5 590,-266.5 "/>
<text text-anchor="start" x="389" y="-249.9" font-family="Times,serif" font-size="14.00">_one_time_conditions_valid_14?</text>
<text text-anchor="start" x="389" y="-234.9" font-family="Times,serif" font-size="14.00">_one_time_conditions_valid_18?</text>
<text text-anchor="start" x="389" y="-219.9" font-family="Times,serif" font-size="14.00">create</text>
<text text-anchor="start" x="389" y="-204.9" font-family="Times,serif" font-size="14.00">destroy</text>
<polyline fill="none" stroke="black" points="381,-198.5 590,-198.5 "/>
<polyline fill="none" stroke="black" points="381,-174.5 590,-174.5 "/>
<text text-anchor="start" x="389" y="-157.9" font-family="Times,serif" font-size="14.00">_layout</text>
<text text-anchor="start" x="389" y="-142.9" font-family="Times,serif" font-size="14.00">_run_process_action_callbacks</text>
<text text-anchor="start" x="389" y="-127.9" font-family="Times,serif" font-size="14.00">authorized_user</text>
</g>
<!-- RelationshipsController -->
<g id="node4" class="node"><title>RelationshipsController</title>
<polyline fill="none" stroke="black" points="393,-321.5 578,-321.5 "/>
<path fill="none" stroke="black" d="M578,-321.5C584,-321.5 590,-327.5 590,-333.5"/>
<polyline fill="none" stroke="black" points="590,-333.5 590,-447.5 "/>
<path fill="none" stroke="black" d="M590,-447.5C590,-453.5 584,-459.5 578,-459.5"/>
<polyline fill="none" stroke="black" points="578,-459.5 393,-459.5 "/>
<path fill="none" stroke="black" d="M393,-459.5C387,-459.5 381,-453.5 381,-447.5"/>
<polyline fill="none" stroke="black" points="381,-447.5 381,-333.5 "/>
<path fill="none" stroke="black" d="M381,-333.5C381,-327.5 387,-321.5 393,-321.5"/>
<text text-anchor="middle" x="485.5" y="-442.9" font-family="Times,serif" font-size="14.00">RelationshipsController</text>
<polyline fill="none" stroke="black" points="381,-436.5 590,-436.5 "/>
<text text-anchor="start" x="389" y="-419.9" font-family="Times,serif" font-size="14.00">_one_time_conditions_valid_22?</text>
<text text-anchor="start" x="389" y="-404.9" font-family="Times,serif" font-size="14.00">create</text>
<text text-anchor="start" x="389" y="-389.9" font-family="Times,serif" font-size="14.00">destroy</text>
<polyline fill="none" stroke="black" points="381,-383.5 590,-383.5 "/>
<polyline fill="none" stroke="black" points="381,-359.5 590,-359.5 "/>
<text text-anchor="start" x="389" y="-342.9" font-family="Times,serif" font-size="14.00">_layout</text>
<text text-anchor="start" x="389" y="-327.9" font-family="Times,serif" font-size="14.00">_run_process_action_callbacks</text>
</g>
<!-- SessionsController -->
<g id="node5" class="node"><title>SessionsController</title>
<polyline fill="none" stroke="black" points="533,-501.5 634,-501.5 "/>
<path fill="none" stroke="black" d="M634,-501.5C640,-501.5 646,-507.5 646,-513.5"/>
<polyline fill="none" stroke="black" points="646,-513.5 646,-612.5 "/>
<path fill="none" stroke="black" d="M646,-612.5C646,-618.5 640,-624.5 634,-624.5"/>
<polyline fill="none" stroke="black" points="634,-624.5 533,-624.5 "/>
<path fill="none" stroke="black" d="M533,-624.5C527,-624.5 521,-618.5 521,-612.5"/>
<polyline fill="none" stroke="black" points="521,-612.5 521,-513.5 "/>
<path fill="none" stroke="black" d="M521,-513.5C521,-507.5 527,-501.5 533,-501.5"/>
<text text-anchor="middle" x="583.5" y="-607.9" font-family="Times,serif" font-size="14.00">SessionsController</text>
<polyline fill="none" stroke="black" points="521,-601.5 646,-601.5 "/>
<text text-anchor="start" x="529" y="-584.9" font-family="Times,serif" font-size="14.00">create</text>
<text text-anchor="start" x="529" y="-569.9" font-family="Times,serif" font-size="14.00">destroy</text>
<text text-anchor="start" x="529" y="-554.9" font-family="Times,serif" font-size="14.00">new</text>
<polyline fill="none" stroke="black" points="521,-548.5 646,-548.5 "/>
<polyline fill="none" stroke="black" points="521,-524.5 646,-524.5 "/>
<text text-anchor="start" x="529" y="-507.9" font-family="Times,serif" font-size="14.00">_layout</text>
</g>
<!-- SiteController -->
<g id="node6" class="node"><title>SiteController</title>
<polyline fill="none" stroke="black" points="13,-241.5 87,-241.5 "/>
<path fill="none" stroke="black" d="M87,-241.5C93,-241.5 99,-247.5 99,-253.5"/>
<polyline fill="none" stroke="black" points="99,-253.5 99,-352.5 "/>
<path fill="none" stroke="black" d="M99,-352.5C99,-358.5 93,-364.5 87,-364.5"/>
<polyline fill="none" stroke="black" points="87,-364.5 13,-364.5 "/>
<path fill="none" stroke="black" d="M13,-364.5C7,-364.5 1,-358.5 1,-352.5"/>
<polyline fill="none" stroke="black" points="1,-352.5 1,-253.5 "/>
<path fill="none" stroke="black" d="M1,-253.5C1,-247.5 7,-241.5 13,-241.5"/>
<text text-anchor="middle" x="50" y="-347.9" font-family="Times,serif" font-size="14.00">SiteController</text>
<polyline fill="none" stroke="black" points="1,-341.5 99,-341.5 "/>
<text text-anchor="start" x="9" y="-324.9" font-family="Times,serif" font-size="14.00">about</text>
<text text-anchor="start" x="9" y="-309.9" font-family="Times,serif" font-size="14.00">help</text>
<text text-anchor="start" x="9" y="-294.9" font-family="Times,serif" font-size="14.00">index</text>
<polyline fill="none" stroke="black" points="1,-288.5 99,-288.5 "/>
<polyline fill="none" stroke="black" points="1,-264.5 99,-264.5 "/>
<text text-anchor="start" x="9" y="-247.9" font-family="Times,serif" font-size="14.00">_layout</text>
</g>
<!-- UsersController -->
<g id="node7" class="node"><title>UsersController</title>
<polyline fill="none" stroke="black" points="153,-81.5 338,-81.5 "/>
<path fill="none" stroke="black" d="M338,-81.5C344,-81.5 350,-87.5 350,-93.5"/>
<polyline fill="none" stroke="black" points="350,-93.5 350,-387.5 "/>
<path fill="none" stroke="black" d="M350,-387.5C350,-393.5 344,-399.5 338,-399.5"/>
<polyline fill="none" stroke="black" points="338,-399.5 153,-399.5 "/>
<path fill="none" stroke="black" d="M153,-399.5C147,-399.5 141,-393.5 141,-387.5"/>
<polyline fill="none" stroke="black" points="141,-387.5 141,-93.5 "/>
<path fill="none" stroke="black" d="M141,-93.5C141,-87.5 147,-81.5 153,-81.5"/>
<text text-anchor="middle" x="245.5" y="-382.9" font-family="Times,serif" font-size="14.00">UsersController</text>
<polyline fill="none" stroke="black" points="141,-376.5 350,-376.5 "/>
<text text-anchor="start" x="149" y="-359.9" font-family="Times,serif" font-size="14.00">_one_time_conditions_valid_24?</text>
<text text-anchor="start" x="149" y="-344.9" font-family="Times,serif" font-size="14.00">_one_time_conditions_valid_28?</text>
<text text-anchor="start" x="149" y="-329.9" font-family="Times,serif" font-size="14.00">_one_time_conditions_valid_32?</text>
<text text-anchor="start" x="149" y="-314.9" font-family="Times,serif" font-size="14.00">create</text>
<text text-anchor="start" x="149" y="-299.9" font-family="Times,serif" font-size="14.00">destroy</text>
<text text-anchor="start" x="149" y="-284.9" font-family="Times,serif" font-size="14.00">edit</text>
<text text-anchor="start" x="149" y="-269.9" font-family="Times,serif" font-size="14.00">followers</text>
<text text-anchor="start" x="149" y="-254.9" font-family="Times,serif" font-size="14.00">following</text>
<text text-anchor="start" x="149" y="-239.9" font-family="Times,serif" font-size="14.00">index</text>
<text text-anchor="start" x="149" y="-224.9" font-family="Times,serif" font-size="14.00">new</text>
<text text-anchor="start" x="149" y="-209.9" font-family="Times,serif" font-size="14.00">show</text>
<text text-anchor="start" x="149" y="-194.9" font-family="Times,serif" font-size="14.00">update</text>
<polyline fill="none" stroke="black" points="141,-188.5 350,-188.5 "/>
<polyline fill="none" stroke="black" points="141,-164.5 350,-164.5 "/>
<text text-anchor="start" x="149" y="-147.9" font-family="Times,serif" font-size="14.00">_layout</text>
<text text-anchor="start" x="149" y="-132.9" font-family="Times,serif" font-size="14.00">_run_process_action_callbacks</text>
<text text-anchor="start" x="149" y="-117.9" font-family="Times,serif" font-size="14.00">admin_user</text>
<text text-anchor="start" x="149" y="-102.9" font-family="Times,serif" font-size="14.00">authenticate</text>
<text text-anchor="start" x="149" y="-87.9" font-family="Times,serif" font-size="14.00">correct_user</text>
</g>
</g>
</svg>
