<?xml version="1.0" encoding="UTF-8" standalone="no"?>
<!DOCTYPE svg PUBLIC "-//W3C//DTD SVG 1.1//EN"
 "http://www.w3.org/Graphics/SVG/1.1/DTD/svg11.dtd">
<!-- Generated by graphviz version 2.26.3 (20100126.1600)
 -->
<!-- Title: models_diagram Pages: 1 -->
<svg width="437pt" height="174pt"
 viewBox="0.00 0.00 437.00 174.00" xmlns="http://www.w3.org/2000/svg" xmlns:xlink="http://www.w3.org/1999/xlink">
<g id="graph1" class="graph" transform="scale(1 1) rotate(0) translate(4 170)">
<title>models_diagram</title>
<polygon fill="white" stroke="white" points="-4,5 -4,-170 434,-170 434,5 -4,5"/>
<!-- _diagram_info -->
<g id="node1" class="node"><title>_diagram_info</title>
<text text-anchor="start" x="8" y="-150.3" font-family="Times,serif" font-size="13.00">Models diagram</text>
<text text-anchor="start" x="8" y="-136.3" font-family="Times,serif" font-size="13.00">Date: May 10 2011 &#45; 16:28</text>
<text text-anchor="start" x="8" y="-122.3" font-family="Times,serif" font-size="13.00">Migration version: 20110508121823</text>
<text text-anchor="start" x="8" y="-108.3" font-family="Times,serif" font-size="13.00">Generated by RailRoady 1.0.2</text>
<text text-anchor="start" x="8" y="-94.3" font-family="Times,serif" font-size="13.00">http://railroady.prestonlee.com</text>
</g>
<!-- Micropost -->
<g id="node2" class="node"><title>Micropost</title>
<ellipse fill="none" stroke="black" cx="160" cy="-18" rx="48.8967" ry="18"/>
<text text-anchor="middle" x="160" y="-12.9" font-family="Times,serif" font-size="14.00">Micropost</text>
</g>
<!-- Relationship -->
<g id="node3" class="node"><title>Relationship</title>
<ellipse fill="none" stroke="black" cx="285" cy="-18" rx="57.8449" ry="18"/>
<text text-anchor="middle" x="285" y="-12.9" font-family="Times,serif" font-size="14.00">Relationship</text>
</g>
<!-- User -->
<g id="node4" class="node"><title>User</title>
<ellipse fill="none" stroke="black" cx="252" cy="-127" rx="28.0958" ry="18"/>
<text text-anchor="middle" x="252" y="-121.9" font-family="Times,serif" font-size="14.00">User</text>
</g>
<!-- User&#45;&gt;Micropost -->
<g id="edge2" class="edge"><title>User&#45;&gt;Micropost</title>
<path fill="none" stroke="black" d="M233.091,-104.598C217.968,-86.6793 196.774,-61.5695 181.101,-42.9998"/>
<ellipse fill="none" stroke="black" cx="235.845" cy="-107.86" rx="4.00002" ry="4.00002"/>
<polygon fill="black" stroke="black" points="180.993,-42.8719 177.982,-32.3275 177.768,-39.0509 174.543,-35.23 174.543,-35.23 174.543,-35.23 177.768,-39.0509 171.104,-38.1325 180.993,-42.8719 180.993,-42.8719"/>
</g>
<!-- User&#45;&gt;Relationship -->
<g id="edge4" class="edge"><title>User&#45;&gt;Relationship</title>
<path fill="none" stroke="black" d="M255.133,-100.624C257.284,-86.5248 260.727,-69.0245 266,-54 267.043,-51.0285 268.299,-48.0006 269.661,-45.0261"/>
<ellipse fill="none" stroke="black" cx="254.518" cy="-104.95" rx="4.00001" ry="4.00001"/>
<polygon fill="black" stroke="black" points="269.781,-44.7866 278.275,-37.8511 272.015,-40.3135 274.249,-35.8404 274.249,-35.8404 274.249,-35.8404 272.015,-40.3135 270.223,-33.8297 269.781,-44.7866 269.781,-44.7866"/>
</g>
<!-- User&#45;&gt;Relationship -->
<g id="edge8" class="edge"><title>User&#45;&gt;Relationship</title>
<path fill="none" stroke="black" d="M259.822,-101.164C264.853,-84.5465 271.388,-62.9602 276.54,-45.9446"/>
<ellipse fill="none" stroke="black" cx="258.608" cy="-105.172" rx="4.00001" ry="4.00001"/>
<polygon fill="black" stroke="black" points="276.645,-45.5969 283.85,-37.3298 278.094,-40.8114 279.543,-36.0259 279.543,-36.0259 279.543,-36.0259 278.094,-40.8114 275.236,-34.7219 276.645,-45.5969 276.645,-45.5969"/>
<text text-anchor="middle" x="333.5" y="-56.9" font-family="Times,serif" font-size="14.00">reverse_relationships</text>
</g>
<!-- User&#45;&gt;User -->
<g id="edge6" class="edge"><title>User&#45;&gt;User</title>
<path fill="none" stroke="black" d="M288.523,-132.487C294.162,-131.659 298,-129.83 298,-127 298,-124.17 294.162,-122.341 288.523,-121.513"/>
<polygon fill="black" stroke="black" points="288.46,-132.49 278.258,-128.468 283.466,-132.726 278.472,-132.963 278.472,-132.963 278.472,-132.963 283.466,-132.726 278.685,-137.458 288.46,-132.49 288.46,-132.49"/>
<polygon fill="black" stroke="black" points="288.46,-121.51 278.685,-116.542 283.466,-121.274 278.472,-121.037 278.472,-121.037 278.472,-121.037 283.466,-121.274 278.258,-125.532 288.46,-121.51 288.46,-121.51"/>
<text text-anchor="middle" x="327" y="-121.9" font-family="Times,serif" font-size="14.00">following</text>
</g>
<!-- User&#45;&gt;User -->
<g id="edge10" class="edge"><title>User&#45;&gt;User</title>
<path fill="none" stroke="black" d="M286.728,-137.46C317.877,-141.352 356,-137.865 356,-127 356,-116.135 317.877,-112.648 286.728,-116.54"/>
<polygon fill="black" stroke="black" points="286.376,-137.405 277.193,-131.412 281.437,-136.632 276.497,-135.858 276.497,-135.858 276.497,-135.858 281.437,-136.632 275.8,-140.304 286.376,-137.405 286.376,-137.405"/>
<polygon fill="black" stroke="black" points="286.376,-116.595 275.8,-113.696 281.437,-117.368 276.497,-118.142 276.497,-118.142 276.497,-118.142 281.437,-117.368 277.193,-122.588 286.376,-116.595 286.376,-116.595"/>
<text text-anchor="middle" x="383.5" y="-121.9" font-family="Times,serif" font-size="14.00">followers</text>
</g>
</g>
</svg>
