<?xml version="1.0" encoding="UTF-8" standalone="no"?>
<!DOCTYPE svg PUBLIC "-//W3C//DTD SVG 1.1//EN"
 "http://www.w3.org/Graphics/SVG/1.1/DTD/svg11.dtd">
<!-- Generated by graphviz version 2.26.3 (20100126.1600)
 -->
<!-- Title: models_diagram Pages: 1 -->
<svg width="557pt" height="276pt"
 viewBox="0.00 0.00 557.00 276.00" xmlns="http://www.w3.org/2000/svg" xmlns:xlink="http://www.w3.org/1999/xlink">
<g id="graph1" class="graph" transform="scale(1 1) rotate(0) translate(4 272)">
<title>models_diagram</title>
<polygon fill="white" stroke="white" points="-4,5 -4,-272 554,-272 554,5 -4,5"/>
<!-- _diagram_info -->
<g id="node1" class="node"><title>_diagram_info</title>
<text text-anchor="start" x="8" y="-222.3" font-family="Times,serif" font-size="13.00">Models diagram</text>
<text text-anchor="start" x="8" y="-208.3" font-family="Times,serif" font-size="13.00">Date: May 10 2011 &#45; 16:28</text>
<text text-anchor="start" x="8" y="-194.3" font-family="Times,serif" font-size="13.00">Migration version: 20110508121823</text>
<text text-anchor="start" x="8" y="-180.3" font-family="Times,serif" font-size="13.00">Generated by RailRoady 1.0.2</text>
<text text-anchor="start" x="8" y="-166.3" font-family="Times,serif" font-size="13.00">http://railroady.prestonlee.com</text>
</g>
<!-- Micropost -->
<g id="node2" class="node"><title>Micropost</title>
<polyline fill="none" stroke="black" points="137.5,-1 248.5,-1 "/>
<path fill="none" stroke="black" d="M248.5,-1C254.5,-1 260.5,-7 260.5,-13"/>
<polyline fill="none" stroke="black" points="260.5,-13 260.5,-65 "/>
<path fill="none" stroke="black" d="M260.5,-65C260.5,-71 254.5,-77 248.5,-77"/>
<polyline fill="none" stroke="black" points="248.5,-77 137.5,-77 "/>
<path fill="none" stroke="black" d="M137.5,-77C131.5,-77 125.5,-71 125.5,-65"/>
<polyline fill="none" stroke="black" points="125.5,-65 125.5,-13 "/>
<path fill="none" stroke="black" d="M125.5,-13C125.5,-7 131.5,-1 137.5,-1"/>
<text text-anchor="middle" x="193" y="-60.4" font-family="Times,serif" font-size="14.00">Micropost</text>
<polyline fill="none" stroke="black" points="125.5,-54 260.5,-54 "/>
<text text-anchor="start" x="133.5" y="-37.4" font-family="Times,serif" font-size="14.00">content :string</text>
<text text-anchor="start" x="133.5" y="-22.4" font-family="Times,serif" font-size="14.00">created_at :datetime</text>
<text text-anchor="start" x="133.5" y="-7.4" font-family="Times,serif" font-size="14.00">updated_at :datetime</text>
</g>
<!-- Relationship -->
<g id="node3" class="node"><title>Relationship</title>
<polyline fill="none" stroke="black" points="289.5,-8.5 400.5,-8.5 "/>
<path fill="none" stroke="black" d="M400.5,-8.5C406.5,-8.5 412.5,-14.5 412.5,-20.5"/>
<polyline fill="none" stroke="black" points="412.5,-20.5 412.5,-57.5 "/>
<path fill="none" stroke="black" d="M412.5,-57.5C412.5,-63.5 406.5,-69.5 400.5,-69.5"/>
<polyline fill="none" stroke="black" points="400.5,-69.5 289.5,-69.5 "/>
<path fill="none" stroke="black" d="M289.5,-69.5C283.5,-69.5 277.5,-63.5 277.5,-57.5"/>
<polyline fill="none" stroke="black" points="277.5,-57.5 277.5,-20.5 "/>
<path fill="none" stroke="black" d="M277.5,-20.5C277.5,-14.5 283.5,-8.5 289.5,-8.5"/>
<text text-anchor="middle" x="345" y="-52.9" font-family="Times,serif" font-size="14.00">Relationship</text>
<polyline fill="none" stroke="black" points="277.5,-46.5 412.5,-46.5 "/>
<text text-anchor="start" x="285.5" y="-29.9" font-family="Times,serif" font-size="14.00">created_at :datetime</text>
<text text-anchor="start" x="285.5" y="-14.9" font-family="Times,serif" font-size="14.00">updated_at :datetime</text>
</g>
<!-- User -->
<g id="node4" class="node"><title>User</title>
<polyline fill="none" stroke="black" points="235.5,-131 388.5,-131 "/>
<path fill="none" stroke="black" d="M388.5,-131C394.5,-131 400.5,-137 400.5,-143"/>
<polyline fill="none" stroke="black" points="400.5,-143 400.5,-255 "/>
<path fill="none" stroke="black" d="M400.5,-255C400.5,-261 394.5,-267 388.5,-267"/>
<polyline fill="none" stroke="black" points="388.5,-267 235.5,-267 "/>
<path fill="none" stroke="black" d="M235.5,-267C229.5,-267 223.5,-261 223.5,-255"/>
<polyline fill="none" stroke="black" points="223.5,-255 223.5,-143 "/>
<path fill="none" stroke="black" d="M223.5,-143C223.5,-137 229.5,-131 235.5,-131"/>
<text text-anchor="middle" x="312" y="-250.4" font-family="Times,serif" font-size="14.00">User</text>
<polyline fill="none" stroke="black" points="223.5,-244 400.5,-244 "/>
<text text-anchor="start" x="231.5" y="-227.4" font-family="Times,serif" font-size="14.00">name :string</text>
<text text-anchor="start" x="231.5" y="-212.4" font-family="Times,serif" font-size="14.00">email :string</text>
<text text-anchor="start" x="231.5" y="-197.4" font-family="Times,serif" font-size="14.00">created_at :datetime</text>
<text text-anchor="start" x="231.5" y="-182.4" font-family="Times,serif" font-size="14.00">updated_at :datetime</text>
<text text-anchor="start" x="231.5" y="-167.4" font-family="Times,serif" font-size="14.00">encrypted_password :string</text>
<text text-anchor="start" x="231.5" y="-152.4" font-family="Times,serif" font-size="14.00">salt :string</text>
<text text-anchor="start" x="231.5" y="-137.4" font-family="Times,serif" font-size="14.00">admin :boolean</text>
</g>
<!-- User&#45;&gt;Micropost -->
<g id="edge2" class="edge"><title>User&#45;&gt;Micropost</title>
<path fill="none" stroke="black" d="M256.37,-124.204C246.507,-110.942 236.502,-97.4896 227.444,-85.3112"/>
<ellipse fill="none" stroke="black" cx="258.801" cy="-127.472" rx="4.00002" ry="4.00002"/>
<polygon fill="black" stroke="black" points="227.306,-85.1257 224.949,-74.4161 224.322,-81.1137 221.338,-77.1017 221.338,-77.1017 221.338,-77.1017 224.322,-81.1137 217.727,-79.7872 227.306,-85.1257 227.306,-85.1257"/>
</g>
<!-- User&#45;&gt;Relationship -->
<g id="edge4" class="edge"><title>User&#45;&gt;Relationship</title>
<path fill="none" stroke="black" d="M320.72,-122.833C322.241,-113.744 323.993,-104.633 326,-96 327.255,-90.6024 328.807,-84.9904 330.479,-79.4853"/>
<ellipse fill="none" stroke="black" cx="320.075" cy="-126.852" rx="4.00001" ry="4.00001"/>
<polygon fill="black" stroke="black" points="330.542,-79.2884 337.868,-71.1285 332.061,-74.5248 333.58,-69.7612 333.58,-69.7612 333.58,-69.7612 332.061,-74.5248 329.293,-68.3939 330.542,-79.2884 330.542,-79.2884"/>
</g>
<!-- User&#45;&gt;Relationship -->
<g id="edge8" class="edge"><title>User&#45;&gt;Relationship</title>
<path fill="none" stroke="black" d="M327.741,-122.678C330.791,-107.89 333.876,-92.9343 336.577,-79.8374"/>
<ellipse fill="none" stroke="black" cx="326.899" cy="-126.764" rx="4.00001" ry="4.00001"/>
<polygon fill="black" stroke="black" points="336.633,-79.565 343.061,-70.6802 337.643,-74.6681 338.653,-69.7712 338.653,-69.7712 338.653,-69.7712 337.643,-74.6681 334.246,-68.8621 336.633,-79.565 336.633,-79.565"/>
<text text-anchor="middle" x="392.5" y="-98.9" font-family="Times,serif" font-size="14.00">reverse_relationships</text>
</g>
<!-- User&#45;&gt;User -->
<g id="edge6" class="edge"><title>User&#45;&gt;User</title>
<path fill="none" stroke="black" d="M410.354,-204.644C415.168,-203.234 418,-201.352 418,-199 418,-196.648 415.168,-194.766 410.354,-193.356"/>
<polygon fill="black" stroke="black" points="410.344,-204.646 399.664,-202.158 405.438,-205.61 400.532,-206.573 400.532,-206.573 400.532,-206.573 405.438,-205.61 401.399,-210.989 410.344,-204.646 410.344,-204.646"/>
<polygon fill="black" stroke="black" points="410.344,-193.354 401.399,-187.011 405.438,-192.39 400.532,-191.427 400.532,-191.427 400.532,-191.427 405.438,-192.39 399.664,-195.842 410.344,-193.354 410.344,-193.354"/>
<text text-anchor="middle" x="447" y="-193.9" font-family="Times,serif" font-size="14.00">following</text>
</g>
<!-- User&#45;&gt;User -->
<g id="edge10" class="edge"><title>User&#45;&gt;User</title>
<path fill="none" stroke="black" d="M410.676,-216.623C446.002,-216.496 476,-210.621 476,-199 476,-187.379 446.002,-181.504 410.676,-181.377"/>
<polygon fill="black" stroke="black" points="410.591,-216.622 400.643,-212.007 405.591,-216.564 400.591,-216.506 400.591,-216.506 400.591,-216.506 405.591,-216.564 400.539,-221.006 410.591,-216.622 410.591,-216.622"/>
<polygon fill="black" stroke="black" points="410.591,-181.378 400.539,-176.994 405.591,-181.436 400.591,-181.494 400.591,-181.494 400.591,-181.494 405.591,-181.436 400.643,-185.993 410.591,-181.378 410.591,-181.378"/>
<text text-anchor="middle" x="503.5" y="-193.9" font-family="Times,serif" font-size="14.00">followers</text>
</g>
</g>
</svg>
